# xmcd CD database file
#
# Track frame offsets:
#	150
#	17542
#	31567
#	49497
#	62400
#	78372
#	91655
#	108372
#	125547
#	141005
#
# Disc length: 2070 seconds
#
# Revision: 0
# Processed by: cddbd v1.4PL0 Copyright (c) Steve Scherf et al.
# Submitted via: CDex 1.40Release
#
DISCID=7008140a
DTITLE=Billy Walker - Larger Than Life
DYEAR=1900
DGENRE=Country
TTITLE0=Adam's Side
TTITLE1=Lay It Down, Give It Up
TTITLE2=When It Comes To You
TTITLE3=It's Just A Matter Of Love
TTITLE4=He Was Born To Die For Me
TTITLE5=Unplug The Jukebox
TTITLE6=You Were Made To Love
TTITLE7=Jesus Walks In
TTITLE8=Every Heart Needs A Chance To Shine
TTITLE9=He Thinks I'm Somebody Special
EXTD=ID3G: 2
EXTT0=
EXTT1=
EXTT2=
EXTT3=
EXTT4=
EXTT5=
EXTT6=
EXTT7=
EXTT8=
EXTT9=
PLAYORDER=
